<?xml version="1.0" encoding="utf-8"?>
<!-- Generator: Adobe Illustrator 17.0.0, SVG Export Plug-In . SVG Version: 6.00 Build 0)  -->
<!DOCTYPE svg PUBLIC "-//W3C//DTD SVG 1.1//EN" "http://www.w3.org/Graphics/SVG/1.1/DTD/svg11.dtd">
<svg version="1.1" id="Layer_1" xmlns="http://www.w3.org/2000/svg" xmlns:xlink="http://www.w3.org/1999/xlink" x="0px" y="0px"
	 width="400px" height="100px" viewBox="820.5 970.5 400 100" enable-background="new 820.5 970.5 400 100" xml:space="preserve">
<g>
	<g>
		<path d="M1028.045,1044.194l-0.04,0.236l0.136,0.198c1.073,1.562,1.641,3.391,1.641,5.287v1.065
			c-0.293,1.032-1.202,2.382-2.014,2.984c-0.442,0.328-0.999,1.041-1.704,1.944c-0.877,1.123-1.968,2.521-2.712,2.907
			c-0.01,0.005-1.024,0.501-3.045,0.501c-2.02,0-3.035-0.496-3.041-0.499c-0.747-0.387-1.838-1.786-2.715-2.909
			c-0.705-0.903-1.261-1.616-1.704-1.944c-0.812-0.601-1.72-1.952-2.014-2.984v-1.065c0-1.897,0.567-3.725,1.641-5.287l0.136-0.198
			l-0.04-0.236c-1.503-8.873-4-14.302-5.889-18.278c-0.46-0.018-0.916-0.056-1.365-0.113c0.037,0.077,0.073,0.153,0.11,0.231
			c1.862,3.913,4.407,9.259,5.937,18.125c-1.122,1.715-1.714,3.7-1.714,5.756v1.219l0.019,0.073
			c0.339,1.303,1.426,2.931,2.474,3.707c0.313,0.232,0.904,0.988,1.475,1.72c0.997,1.277,2.127,2.725,3.104,3.231
			c0.05,0.026,1.246,0.632,3.586,0.632s3.536-0.606,3.586-0.632c0.976-0.506,2.107-1.954,3.104-3.231
			c0.571-0.732,1.162-1.489,1.475-1.72c1.047-0.776,2.134-2.404,2.474-3.707l0.019-0.073v-1.22c0-2.056-0.592-4.041-1.714-5.756
			c1.53-8.867,4.074-14.213,5.937-18.126c0.037-0.077,0.073-0.154,0.109-0.23c-0.449,0.057-0.905,0.095-1.365,0.113
			C1032.045,1029.892,1029.548,1035.321,1028.045,1044.194z M1028.607,1026.637c-0.144-0.078-0.323-0.024-0.401,0.119
			c-0.091,0.168-2.222,4.244-1.212,14.479c0.015,0.153,0.144,0.267,0.294,0.267c0.01,0,0.019,0,0.029-0.001
			c0.163-0.016,0.282-0.161,0.266-0.324c-0.988-10.007,1.116-14.087,1.144-14.139
			C1028.805,1026.895,1028.751,1026.715,1028.607,1026.637z M1013.149,1043.199c-0.131,0.098-0.157,0.284-0.058,0.415
			c0.098,0.13,0.284,0.157,0.415,0.058c1.912-1.439,4.2-2.169,6.802-2.169c2.602,0,4.891,0.73,6.803,2.169
			c0.053,0.04,0.116,0.06,0.178,0.06c0.09,0,0.179-0.041,0.237-0.118c0.098-0.131,0.072-0.316-0.058-0.415
			c-2.017-1.518-4.425-2.288-7.159-2.288S1015.166,1041.681,1013.149,1043.199z M1032.703,988.607l0.344-0.581
			c0.631-1.065,1.708-2.881,2.212-3.657c1.007,0.686,1.646,1.982,1.818,3.709c0.205,2.061-0.28,4.454-1.367,6.738
			c-0.52,1.093-1.156,2.103-1.872,2.988c0.161,0.431,0.3,0.88,0.406,1.343c0.987-1.092,1.855-2.393,2.535-3.822
			c1.179-2.476,1.703-5.091,1.477-7.364c-0.237-2.381-1.267-4.121-2.899-4.898l-0.121-0.058l-0.136-0.001
			c-0.452,0-0.452,0-3.071,4.417l-0.344,0.58c-0.711,1.197-1.532,2.434-2.439,3.687c0.343,0.224,0.662,0.462,0.949,0.707
			C1031.126,991.11,1031.971,989.839,1032.703,988.607z M1024.954,1054.189c0,0.143,0.124,0.259,0.276,0.259
			c0.152,0,0.276-0.116,0.276-0.259c0-3.835,1.388-6.411,2.684-6.411c0.152,0,0.276-0.116,0.276-0.259
			c0-0.143-0.124-0.259-0.276-0.259C1026.376,1047.26,1024.954,1050.303,1024.954,1054.189z M1006.372,999.147
			c0.106-0.463,0.245-0.912,0.406-1.343c-0.716-0.885-1.352-1.895-1.872-2.988c-1.087-2.284-1.573-4.677-1.367-6.738
			c0.172-1.727,0.811-3.023,1.818-3.709c0.504,0.776,1.58,2.592,2.212,3.657l0.344,0.581c0.732,1.232,1.577,2.503,2.508,3.789
			c0.287-0.245,0.606-0.483,0.949-0.707c-0.907-1.253-1.728-2.49-2.439-3.687l-0.344-0.58c-2.618-4.417-2.618-4.417-3.07-4.417
			l-0.136,0.001l-0.121,0.058c-1.633,0.777-2.662,2.516-2.899,4.898c-0.226,2.273,0.298,4.888,1.477,7.364
			C1004.518,996.755,1005.385,998.056,1006.372,999.147z M1006.825,999.939l-0.063,0.425l-0.006,0.058
			c-0.001,0.023-0.001,0.044,0,0.063c-0.045,0.434-0.068,0.871-0.068,1.298c0,0.44,0.023,0.885,0.069,1.322
			c-0.008,0.146-0.069,0.88-0.472,2.499c0.399,0.01,0.801,0.026,1.208,0.049c0.438-1.811,0.45-2.521,0.45-2.565l0-0.034
			l-0.004-0.034c-0.045-0.409-0.067-0.826-0.067-1.238c0-0.405,0.023-0.82,0.068-1.232l0.006-0.053l-0.002-0.03l0.053-0.354
			c0.489-3.301,3.281-6.093,3.309-6.121c1.065-1.049,3.219-2.087,4.703-2.265c0.017-0.002,1.762-0.207,4.3-0.207
			c2.538,0,4.283,0.205,4.3,0.207c1.484,0.178,3.638,1.215,4.703,2.265c0.028,0.028,2.818,2.81,3.309,6.121l0.052,0.355
			l-0.002,0.029l0.006,0.053c0.045,0.412,0.067,0.827,0.067,1.232c0,0.415-0.023,0.831-0.067,1.238l-0.004,0.034l0,0.034
			c0,0.043,0.012,0.753,0.45,2.565c0.406-0.023,0.809-0.039,1.208-0.049c-0.406-1.628-0.464-2.36-0.472-2.498
			c0.046-0.435,0.069-0.88,0.069-1.323c0-0.424-0.022-0.856-0.067-1.286l0.003-0.02l-0.073-0.538
			c-0.548-3.699-3.523-6.666-3.649-6.791c-1.263-1.245-3.632-2.386-5.393-2.597c-0.073-0.009-1.826-0.216-4.441-0.216
			c-2.615,0-4.367,0.207-4.441,0.216c-1.761,0.211-4.13,1.352-5.393,2.597C1010.348,993.272,1007.373,996.24,1006.825,999.939z
			 M1046.108,1007.987l-0.063-0.06l-0.086-0.015c-1.073-0.186-2.158-0.424-3.207-0.655c-0.239-0.053-0.479-0.105-0.718-0.157
			c-2.264-0.493-4.507-0.732-6.857-0.732c-2.998,0-6.149,0.39-9.917,1.228c-1.397,0.311-2.827,0.462-4.373,0.462
			c-0.188,0-0.381-0.002-0.573-0.007h-0.014c-0.192,0.004-0.385,0.007-0.573,0.007c-1.545,0-2.975-0.151-4.373-0.462
			c-3.768-0.838-6.919-1.228-9.917-1.228c-2.35,0-4.593,0.239-6.857,0.732c-0.239,0.052-0.479,0.105-0.718,0.157
			c-1.049,0.231-2.133,0.469-3.207,0.655l-0.086,0.015l-0.064,0.06c-0.395,0.371-0.381,0.91-0.366,1.481
			c0.003,0.126,0.007,0.257,0.006,0.387c-0.011,1.387,0.557,2.079,1.277,2.955c0.071,0.087,0.145,0.176,0.22,0.269
			c0.637,0.787,0.908,1.942,1.17,3.058c0.129,0.551,0.251,1.071,0.415,1.556c0.856,2.523,1.741,5.133,4.677,6.404
			c1.599,0.692,3.466,1.058,5.399,1.058c1.086,0,2.164-0.114,3.203-0.339c2.143-0.464,4.058-1.781,5.541-3.809
			c1.047-1.431,1.583-2.954,2.101-4.427c0.286-0.811,0.581-1.65,0.961-2.479c0.263-0.575,0.635-0.866,1.106-0.866
			c0.024,0,0.048,0.001,0.072,0.002l0.018,0.001l0.018-0.001c0.024-0.001,0.048-0.002,0.072-0.002c0.47,0,0.842,0.291,1.106,0.866
			c0.38,0.829,0.676,1.668,0.961,2.479c0.519,1.473,1.055,2.995,2.101,4.427c1.482,2.027,3.398,3.344,5.541,3.809
			c1.039,0.225,2.117,0.339,3.203,0.339c0,0,0,0,0,0c1.933,0,3.8-0.366,5.399-1.058c2.937-1.271,3.822-3.881,4.677-6.404
			c0.164-0.484,0.286-1.005,0.416-1.556c0.262-1.117,0.533-2.271,1.17-3.058c0.075-0.093,0.148-0.182,0.22-0.269
			c0.72-0.876,1.288-1.568,1.277-2.955c-0.001-0.13,0.002-0.261,0.006-0.387C1046.489,1008.897,1046.503,1008.358,1046.108,1007.987
			z M1016.469,1014.893c-0.763,2.462-1.903,4.405-3.387,5.776c-1.634,1.509-3.652,2.274-5.998,2.274
			c-0.185,0-0.375-0.005-0.564-0.014c-3.059-0.154-5.057-1.187-6.108-3.157c-1.136-2.129-1.752-5.11-1.605-7.782
			c0.131-2.392,2.918-3.605,8.284-3.605c0.659,0,1.243,0.018,1.775,0.037c4.95,0.177,6.709,1.922,7.235,2.663
			C1016.817,1012.092,1016.941,1013.373,1016.469,1014.893z M1040.204,1019.772c-1.052,1.97-3.05,3.003-6.108,3.157
			c-0.189,0.01-0.379,0.014-0.564,0.014c-2.346,0-4.364-0.765-5.998-2.274c-1.484-1.37-2.623-3.313-3.387-5.776
			c-0.471-1.52-0.348-2.801,0.367-3.809c0.526-0.742,2.286-2.486,7.235-2.663c0.532-0.019,1.116-0.037,1.775-0.037
			c5.366,0,8.153,1.213,8.284,3.605C1041.955,1014.661,1041.34,1017.643,1040.204,1019.772z M1035.502,1009.581l-0.117-0.364
			c-0.4-0.026-0.82-0.043-1.26-0.051c0.02,0.062,0.039,0.122,0.059,0.185l0.191,0.593c1.302,4.041,1.409,4.371,1.828,7.91
			c0.003,0.019,0.203,1.572-0.593,4.122c0.488-0.092,0.936-0.215,1.342-0.37c0.635-2.392,0.436-3.837,0.425-3.907
			C1036.946,1014.061,1036.809,1013.637,1035.502,1009.581z M1012.15,1047.519c0,0.143,0.124,0.259,0.276,0.259
			c1.296,0,2.684,2.576,2.684,6.411c0,0.143,0.124,0.259,0.276,0.259c0.152,0,0.276-0.116,0.276-0.259
			c0-3.885-1.421-6.929-3.236-6.929C1012.273,1047.26,1012.15,1047.376,1012.15,1047.519z M1026.857,1016.249L1026.857,1016.249
			c-0.04,0.065-0.068,0.14-0.075,0.221c-0.017,0.194,0.077,0.369,0.229,0.47l0,0l0.173,0.116c0.223,0.078,0.674,0.168,1.004,0.197
			c2.057,0.18,4.009-0.916,5.095-2.86l0.031-0.056l-0.019-0.061c-0.121-0.391-0.318-0.754-0.57-1.078
			c0.059,0.003,0.117,0.003,0.176,0.008c0.219,0.019,0.449,0.058,0.723,0.121l0.133-0.577c-0.302-0.07-0.558-0.112-0.805-0.134
			C1030.411,1012.396,1028.019,1013.841,1026.857,1016.249z M1013.759,1016.249L1013.759,1016.249
			c-1.162-2.408-3.553-3.853-6.095-3.631c-0.247,0.022-0.503,0.064-0.805,0.134l0.133,0.577c0.274-0.063,0.504-0.102,0.723-0.121
			c0.059-0.005,0.117-0.005,0.176-0.008c-0.252,0.323-0.449,0.687-0.57,1.078l-0.019,0.061l0.031,0.056
			c1.086,1.944,3.038,3.04,5.095,2.86c0.331-0.029,0.781-0.119,1.004-0.197l0.173-0.116l0,0c0.151-0.101,0.246-0.276,0.229-0.47
			C1013.827,1016.389,1013.799,1016.315,1013.759,1016.249z M1005.115,1009.578c-1.308,4.058-1.444,4.482-1.873,8.104
			c-0.012,0.082-0.212,1.531,0.423,3.924c0.406,0.155,0.854,0.278,1.342,0.37c-0.796-2.551-0.595-4.106-0.591-4.138
			c0.417-3.525,0.524-3.855,1.826-7.897l0.19-0.591c0.02-0.063,0.039-0.123,0.059-0.185c-0.439,0.008-0.86,0.025-1.26,0.051
			L1005.115,1009.578z M1012.009,1026.637c-0.144,0.078-0.197,0.258-0.119,0.401c0.021,0.04,2.136,4.083,1.144,14.139
			c-0.016,0.163,0.103,0.308,0.266,0.324c0.01,0.001,0.02,0.001,0.029,0.001c0.151,0,0.279-0.114,0.294-0.267
			c1.01-10.236-1.121-14.311-1.212-14.479C1012.332,1026.613,1012.152,1026.559,1012.009,1026.637z"/>
	</g>
	<g>
		<path fill="#2BB673" d="M1018.412,984.589l-0.135,0.84c-0.017,0.106,0.055,0.205,0.16,0.222c0.106,0.017,0.205-0.055,0.222-0.16
			l0.135-0.84c0.073-0.451-0.088-1.31-0.265-2.049c0.962,2.506,0.685,6.988,0.681,7.044c-0.007,0.107,0.074,0.199,0.181,0.205
			c0.004,0,0.008,0,0.012,0c0.101,0,0.187-0.079,0.193-0.182c0.017-0.278,0.404-6.632-1.478-8.481l-0.546-0.536l0.225,0.731
			C1018.004,982.054,1018.517,983.937,1018.412,984.589z M1017.635,987.545c0.287,1.035-0.872,2.154-0.883,2.165
			c-0.077,0.074-0.081,0.196-0.007,0.274c0.074,0.077,0.196,0.081,0.274,0.007c0.055-0.052,1.34-1.289,0.99-2.549
			c-0.173-0.622-0.55-1.218-0.88-1.654c0.375,0.211,0.782,0.499,0.978,0.835c0.403,0.691,0.494,1.284,0.303,1.983
			c-0.19,0.696-0.254,0.986-0.255,0.991c-0.034,0.102,0.021,0.211,0.123,0.245c0.02,0.007,0.041,0.01,0.061,0.01
			c0.081,0,0.157-0.051,0.184-0.133c0.002-0.005,0.069-0.304,0.261-1.011c0.218-0.798,0.112-1.501-0.343-2.28
			c-0.482-0.826-1.913-1.354-1.974-1.376l-0.821-0.298l0.618,0.617C1016.275,985.381,1017.329,986.445,1017.635,987.545z
			 M1017.373,992.357c-0.109-0.054-0.243-0.01-0.298,0.099c-1.047,2.094-0.939,6.32,0.323,8.691
			c-1.963-1.779-1.91-5.831-1.174-8.389c0.034-0.118-0.034-0.241-0.152-0.275c-0.117-0.034-0.241,0.034-0.275,0.152
			c-0.903,3.141-0.688,8.012,2.476,9.652l1.509,0.782l-1.258-1.143c-1.615-1.469-2.432-6.512-1.052-9.271
			C1017.527,992.545,1017.483,992.412,1017.373,992.357z M1016.434,988.579c-0.007,0.107,0.074,0.199,0.181,0.206
			c0.004,0,0.008,0,0.012,0c0.101,0,0.187-0.079,0.193-0.182c0.041-0.644-0.37-1.175-0.816-1.556
			c0.046,0.018,0.092,0.035,0.137,0.053c0.216,0.084,0.44,0.171,0.712,0.236c0.104,0.025,0.209-0.039,0.234-0.143
			c0.025-0.104-0.039-0.209-0.143-0.234c-0.247-0.059-0.448-0.137-0.662-0.22c-0.343-0.133-0.732-0.284-1.371-0.373l-1.351-0.19
			l1.245,0.558C1014.821,986.741,1016.501,987.507,1016.434,988.579z M1014.65,990.165c0.038,0.038,0.087,0.057,0.137,0.057
			c0.05,0,0.099-0.019,0.137-0.057c0.539-0.539,0.664-0.995-0.064-2.158c0.291,0.145,0.511,0.343,0.659,0.591
			c0.359,0.604,0.173,1.129,0.171,1.137c-0.028,0.103,0.033,0.209,0.136,0.237c0.104,0.028,0.21-0.033,0.238-0.136
			c0.01-0.036,0.232-0.685-0.21-1.433c-0.282-0.477-0.764-0.8-1.433-0.962l-0.499-0.12l0.295,0.42
			c1.066,1.516,0.814,1.768,0.433,2.149C1014.574,989.967,1014.574,990.089,1014.65,990.165z M1019.884,983.873
			c0.105,0.02,0.207-0.048,0.227-0.154c0.104-0.541,0.365-0.98,0.673-1.328c-0.337,0.724-0.835,2.736-0.858,2.827
			c-0.026,0.104,0.038,0.209,0.142,0.235c0.016,0.004,0.031,0.006,0.046,0.006c0.087,0,0.166-0.059,0.188-0.147
			c0.16-0.648,0.63-2.424,0.883-2.854c0.298-0.507,1.197-1.162,1.206-1.168l1.089-0.789l-1.268,0.45
			c-0.086,0.031-2.111,0.77-2.483,2.697C1019.71,983.752,1019.779,983.853,1019.884,983.873z M1011.556,1010.934l-1.445,1.151
			l1.677-0.776c0.676-0.313,1.268-0.716,1.769-1.187c-0.264-0.118-0.546-0.224-0.843-0.319
			C1012.386,1010.201,1012.001,1010.579,1011.556,1010.934z M1024.878,988.575c-0.654,0.575-0.762,1.345-0.767,1.382
			c-0.013,0.106,0.063,0.202,0.169,0.215c0.105,0.012,0.202-0.063,0.215-0.169c0.001-0.008,0.098-0.662,0.638-1.136
			c0.213-0.187,0.507-0.208,0.775-0.171c-0.69,0.374-1.05,1.243-1.075,1.292c-0.049,0.095-0.012,0.212,0.083,0.261
			c0.028,0.015,0.059,0.022,0.089,0.022c0.07,0,0.138-0.038,0.172-0.105c0.007-0.014,0.627-1.374,1.469-1.242l1.206,0.191
			l-1.088-0.555C1026.717,988.535,1025.574,987.963,1024.878,988.575z M1024.057,986.999c-0.068,0.083-0.056,0.205,0.026,0.273
			c0.083,0.068,0.205,0.056,0.273-0.026c0.114-0.138,0.403-0.169,0.688-0.156c-1.082,0.844-1.599,2.64-1.628,2.737
			c-0.031,0.102,0.027,0.21,0.129,0.241c0.019,0.006,0.038,0.008,0.056,0.008c0.083,0,0.16-0.054,0.185-0.138
			c0.008-0.026,0.689-2.357,1.912-2.779l0.622-0.215l-0.64-0.156C1025.558,986.758,1024.462,986.508,1024.057,986.999z
			 M1021.505,983.33c-1.207,1.392-1.383,6.112-1.39,6.32c-0.004,0.107,0.08,0.197,0.187,0.2c0.106,0.003,0.196-0.08,0.2-0.187
			c0.002-0.05,0.178-4.79,1.296-6.079c0.622-0.718,1.309-0.872,1.786-0.872c0.005,0,0.01,0,0.015,0
			c-0.686,0.367-1.767,1.092-2.037,2.117c-0.375,1.422-0.725,4.668-0.736,4.814c-0.008,0.107,0.072,0.2,0.179,0.207
			c0.005,0,0.01,0,0.014,0c0.101,0,0.186-0.078,0.193-0.18c0.003-0.035,0.358-3.356,0.724-4.743
			c0.345-1.308,2.363-2.121,2.383-2.129l0.474-0.188l-0.479-0.174c-0.016-0.006-0.401-0.143-0.939-0.1
			C1022.88,982.375,1022.155,982.58,1021.505,983.33z M1022.388,984.822c-0.399,1.003-0.732,3.258-0.746,3.353
			c-0.016,0.106,0.058,0.204,0.164,0.22c0.106,0.015,0.204-0.058,0.22-0.164c0.003-0.023,0.34-2.306,0.723-3.266
			c0.138-0.347,0.436-0.622,0.749-0.829c-0.29,0.313-0.37,0.501-0.56,0.976c-0.295,0.738-0.929,4.429-0.956,4.594
			c-0.017,0.106,0.054,0.205,0.16,0.222c0.011,0.002,0.021,0.003,0.031,0.003c0.093,0,0.176-0.068,0.191-0.163
			c0.006-0.04,0.654-3.813,0.933-4.512c0.274-0.686,0.274-0.686,1.308-1.65l0.593-0.553l-0.779,0.225
			C1024.354,983.298,1022.814,983.754,1022.388,984.822z M1022.899,989.978c0.008,0.001,0.016,0.002,0.024,0.002
			c0.096,0,0.18-0.072,0.192-0.17c0.195-1.552,0.693-3.54,1.189-3.744l0.509-0.21l-0.528-0.155
			c-0.201-0.059-0.604-0.075-0.839,0.239c-0.064,0.086-0.047,0.207,0.039,0.271c0.058,0.043,0.132,0.049,0.194,0.023
			c-0.573,1.056-0.881,2.998-0.948,3.528C1022.718,989.868,1022.793,989.965,1022.899,989.978z M1027.739,1002.794
			c-0.209-0.169-0.421-0.335-0.633-0.502c-0.944-0.74-1.92-1.506-2.599-2.513c-1.494-2.214-1.865-5.153-1.913-7.229
			c-0.003-0.123-0.102-0.215-0.227-0.217c-0.122,0.003-0.22,0.105-0.217,0.227c0.05,2.135,0.435,5.164,1.989,7.467
			c0.718,1.065,1.722,1.852,2.693,2.614c0.211,0.165,0.421,0.33,0.628,0.498c0.997,0.807,1.652,1.833,2.132,2.869
			c0.154-0.022,0.307-0.043,0.459-0.063C1029.544,1004.818,1028.842,1003.686,1027.739,1002.794z M1022.411,1002.322
			c-1.613-3.091-3.281-6.288-1.898-9.683c0.046-0.113-0.008-0.243-0.122-0.289c-0.113-0.046-0.243,0.008-0.289,0.122
			c-1.46,3.585,0.333,7.022,1.916,10.055l0.097,0.187c0.886,1.699,1.013,2.929,0.804,4.47c0.152-0.015,0.303-0.032,0.454-0.051
			c0.195-1.558,0.047-2.876-0.864-4.625L1022.411,1002.322z M1023.122,1000.239c-1.034-2.434-2.104-4.951-1.459-7.632
			c0.029-0.119-0.045-0.239-0.164-0.268c-0.118-0.029-0.239,0.045-0.268,0.164c-0.68,2.823,0.419,5.409,1.482,7.909
			c0.422,0.994,0.859,2.021,1.166,3.033c0.358,1.179,0.358,2.36,0.254,3.578c0.151-0.025,0.302-0.051,0.452-0.08
			c0.095-1.207,0.084-2.427-0.281-3.627C1023.99,1002.282,1023.549,1001.244,1023.122,1000.239z M1028.722,996.684
			c-0.774-0.973-1.671-2.561-2.223-3.696c-0.053-0.11-0.186-0.156-0.297-0.103c-0.11,0.054-0.156,0.186-0.103,0.297
			c0.573,1.179,1.486,2.786,2.275,3.779c1.283,1.614,2.506,3.152,2.677,5.244c-0.694-1.523-1.822-3.052-3.313-4.48
			c-1.013-0.97-2.693-2.93-2.562-5.156c0.007-0.122-0.086-0.227-0.209-0.235c-0.122-0.008-0.227,0.086-0.235,0.209
			c-0.142,2.404,1.63,4.479,2.698,5.502c1.794,1.718,3.046,3.58,3.619,5.384l0.329,1.034l0.104-1.08
			C1031.76,1000.506,1030.216,998.563,1028.722,996.684z M1027.734,1000.532c-2.77-2.511-3.799-4.673-3.799-7.977
			c0-0.123-0.099-0.222-0.222-0.222c-0.123,0-0.222,0.099-0.222,0.222c0,3.447,1.069,5.698,3.945,8.306
			c1.269,1.151,2.523,2.995,2.738,5.068c0.148-0.019,0.295-0.037,0.441-0.055
			C1030.383,1003.681,1029.067,1001.741,1027.734,1000.532z M1014.094,1001.588c-0.331-0.676-0.673-1.375-0.923-2.093
			c-0.554-1.588-0.373-3.495-0.042-5.177c0.041-0.207,0.081-0.508,0.119-0.708c0.023-0.121-0.056-0.237-0.177-0.259
			c-0.12-0.024-0.237,0.056-0.259,0.177c-0.037,0.198-0.078,0.498-0.118,0.704c-0.342,1.738-0.536,3.707,0.059,5.409
			c0.26,0.743,0.607,1.454,0.944,2.142c0.364,0.743,0.739,1.511,0.999,2.313c0.286,0.883,0.348,1.77,0.214,2.609
			c0.144,0.031,0.29,0.063,0.437,0.095c0.15-0.913,0.083-1.879-0.228-2.841C1014.847,1003.127,1014.464,1002.345,1014.094,1001.588z
			 M1016.222,1005.402c-0.099,0.072-0.121,0.211-0.049,0.31c0.354,0.488,0.634,0.954,0.857,1.395
			c0.175,0.024,0.351,0.045,0.528,0.064c-0.251-0.536-0.584-1.112-1.025-1.719C1016.46,1005.352,1016.321,1005.33,1016.222,1005.402
			z M1011.588,995.265c0.025-0.12-0.053-0.238-0.173-0.262c-0.119-0.024-0.237,0.053-0.262,0.173
			c-0.514,2.51,0.062,5.232,1.539,7.28c0.965,1.338,1.405,2.733,1.338,4.069c0.15,0.03,0.301,0.061,0.453,0.092
			c0.089-1.451-0.382-2.967-1.43-4.421C1011.646,1000.246,1011.099,997.655,1011.588,995.265z M1016.722,1003.345
			c-0.242-0.277-0.492-0.563-0.71-0.858c-1.621-2.195-2.64-6.673-1.157-9.393c0.059-0.108,0.019-0.243-0.089-0.301
			c-0.108-0.059-0.242-0.019-0.301,0.089c-1.571,2.881-0.512,7.564,1.19,9.869c0.229,0.31,0.485,0.603,0.733,0.887
			c0.492,0.563,0.957,1.095,1.238,1.758c0.24,0.568,0.363,1.185,0.411,1.82c0.148,0.012,0.297,0.022,0.447,0.03
			c-0.047-0.7-0.18-1.386-0.449-2.023C1017.726,1004.494,1017.216,1003.91,1016.722,1003.345z M1017.048,1002.501
			c-0.107-0.059-0.242-0.021-0.302,0.086c-0.06,0.107-0.021,0.242,0.086,0.302c1.409,0.787,2.743,2.611,3.257,4.39
			c0.065-0.001,0.13-0.002,0.195-0.003l0.009,0h0.032l0.009,0c0.073,0.002,0.145,0.003,0.217,0.004
			C1020.03,1005.334,1018.607,1003.373,1017.048,1002.501z M1019.485,1000.681c-0.4-0.648-0.777-1.261-0.849-2.07
			c-0.029-0.329-0.078-0.705-0.131-1.103c-0.215-1.639-0.288-3.776,0.479-4.926c0.068-0.102,0.041-0.24-0.062-0.308
			c-0.102-0.068-0.24-0.041-0.308,0.062c-0.859,1.288-0.774,3.517-0.549,5.23c0.051,0.393,0.1,0.764,0.129,1.085
			c0.081,0.914,0.485,1.57,0.913,2.264c0.167,0.271,0.339,0.551,0.492,0.848c1.212,2.366,1.644,4.163,1.669,5.515
			c0.148-0.003,0.295-0.007,0.442-0.012c-0.027-1.422-0.476-3.286-1.715-5.705
			C1019.834,1001.247,1019.656,1000.959,1019.485,1000.681z"/>
	</g>
</g>
<g>
	<path fill="#2BB673" d="M850.17,1021.984c0-7.647,6.176-14.015,14.015-14.015c7.84,0,13.951,5.919,13.951,12.671
		c0,5.472-3.104,7.775-5.823,7.775c-2.24,0-3.808-1.152-4.352-2.976c-1.312,1.632-2.944,2.976-5.472,2.976
		c-3.104,0-5.664-2.304-5.664-5.695c0-4.576,3.872-7.968,7.455-7.968c2.592,0,4.032,1.439,4.769,2.848l0.447-2.399l1.536,0.191
		l-1.184,6.752c-0.192,1.12-0.288,1.92-0.288,2.304c0,1.824,1.056,2.815,2.88,2.815c2.239,0,4.607-1.983,4.607-6.623
		c0-5.855-5.504-11.647-12.863-11.647c-7.392,0-12.927,5.855-12.927,12.991c0,7.167,5.472,12.927,13.183,12.927
		c3.2,0,5.536-0.735,8-2.176l0.479,0.8c-2.464,1.504-5.151,2.4-8.479,2.4C856.249,1035.936,850.17,1029.632,850.17,1021.984z
		 M868.505,1020.736c0-2.527-1.792-4.447-4.225-4.447c-2.911,0-5.791,2.72-5.791,6.304c0,2.72,1.76,4.319,4.256,4.319
		C865.753,1026.912,868.505,1023.872,868.505,1020.736z"/>
	<path fill="#2BB673" d="M883.161,1008.354h1.664v20.862h13.151v1.536h-14.815V1008.354z"/>
	<path fill="#2BB673" d="M902.969,1008.354h15.935v1.536h-14.271v8.799h12.831v1.536h-12.831v8.991h14.432v1.536h-16.095V1008.354z"
		/>
	<path fill="#2BB673" d="M932.92,1008.193h1.601l10.431,22.559h-1.823l-2.849-6.271h-13.215l-2.848,6.271h-1.728L932.92,1008.193z
		 M939.576,1022.977l-5.888-12.959l-5.92,12.959H939.576z"/>
	<path fill="#2BB673" d="M949.689,1008.354h1.567l8.991,13.247l8.991-13.247h1.568v22.398h-1.664v-19.455l-8.863,12.896h-0.128
		l-8.863-12.896v19.455h-1.6V1008.354z"/>
</g>
<g>
	<path fill="#2BB673" d="M1068.814,1019.616v-0.063c0-6.048,4.384-11.583,11.071-11.583c3.647,0,5.951,1.088,8.191,2.943
		l-1.088,1.248c-1.76-1.536-3.808-2.688-7.2-2.688c-5.439,0-9.247,4.607-9.247,10.015v0.064c0,5.791,3.616,10.111,9.6,10.111
		c2.848,0,5.504-1.185,7.136-2.561v-6.431h-7.488v-1.536h9.088v8.64c-2.016,1.791-5.151,3.359-8.8,3.359
		C1073.006,1031.136,1068.814,1025.92,1068.814,1019.616z"/>
	<path fill="#2BB673" d="M1094.895,1008.354h15.935v1.536h-14.271v8.799h12.831v1.536h-12.831v8.991h14.432v1.536h-16.095V1008.354z
		"/>
	<path fill="#2BB673" d="M1116.334,1008.354h15.935v1.536h-14.271v8.799h12.831v1.536h-12.831v8.991h14.432v1.536h-16.095V1008.354z
		"/>
	<path fill="#2BB673" d="M1137.774,1008.354h1.663v14.719l14.271-14.719h2.271l-9.791,9.887l10.207,12.512h-2.176l-9.215-11.327
		l-5.568,5.631v5.696h-1.663V1008.354z"/>
	<path fill="#2BB673" d="M1158.894,1027.488l1.088-1.248c2.464,2.271,4.736,3.327,8.031,3.327c3.36,0,5.664-1.888,5.664-4.447
		v-0.064c0-2.367-1.248-3.743-6.336-4.768c-5.375-1.088-7.551-2.911-7.551-6.303v-0.064c0-3.328,3.039-5.888,7.199-5.888
		c3.264,0,5.407,0.896,7.68,2.72l-1.057,1.312c-2.111-1.824-4.224-2.528-6.688-2.528c-3.296,0-5.472,1.888-5.472,4.224v0.064
		c0,2.367,1.217,3.808,6.528,4.896c5.184,1.056,7.359,2.912,7.359,6.176v0.063c0,3.616-3.104,6.111-7.424,6.111
		C1164.333,1031.071,1161.581,1029.888,1158.894,1027.488z"/>
</g>
</svg>
